# xmcd
#
# Track frame offsets:
#	150
#	13288
#	24911
#	37162
#	50993
#	63202
#	73627
#	84968
#	97859
#	112953
#	126172
#	137368
#	149064
#	163129
#
# Disc length: 2363 seconds
#
# Revision: 2
# Processed by: cddbd v1.5.2PL0 Copyright (c) Steve Scherf et al.
# Submitted via: EZCDAudioConverter 1.3.4.1
#
DISCID=c209390e
DTITLE=Stereophonic Space Sound Unlimited - Jet Sound Inc.
DYEAR=1900
DGENRE=
TTITLE0=Lizard
TTITLE1=4th Gear Left Hand Corner
TTITLE2=The Pool Scene
TTITLE3=Snakecharmer
TTITLE4=C For Cobra
TTITLE5=Vampire Walk
TTITLE6=Harlem Nightdrive
TTITLE7=Kowalski
TTITLE8=Emerald Coast
TTITLE9=The Drunken Camel
TTITLE10=36 Degrees In The Shade
TTITLE11=Nightclub '67
TTITLE12=Nassau Shake Down
TTITLE13=The Birdman
EXTD=
EXTT0=
EXTT1=
EXTT2=
EXTT3=
EXTT4=
EXTT5=
EXTT6=
EXTT7=
EXTT8=
EXTT9=
EXTT10=
EXTT11=
EXTT12=
EXTT13=
PLAYORDER=
